/* XPM */
static char *_21a989ff69440599f7be5cdc962190e[] = {
/* columns rows colors chars-per-pixel */
"39 36 26 1 ",
"  c #231C0A",
". c gray52",
"X c gray11",
"o c #372914",
"O c gray15",
"+ c #493418",
"@ c #935B38",
"# c gray48",
"$ c #5E3F1F",
"% c #7E502D",
"& c #A4693F",
"* c #313131",
"= c #654223",
"- c #885431",
"; c #8C5734",
": c #3F3F3F",
"> c #9D623B",
", c gray34",
"< c #6C6C6C",
"1 c #3F3115",
"2 c #774D2A",
"3 c #626262",
"4 c #494949",
"5 c #704626",
"6 c #50381C",
"7 c black",
/* pixels */
"777777777777777777777777777777777777777",
"777777777777777777777777777777777777777",
"777777777777777777777777777777777777777",
"777777777777777777777777777777777777777",
"777777777777777777777777777777777777777",
"7777777777333333333<<<<<<####7777777777",
"77777777<344444444444,,,,,333#<77777777",
"7777777<#4*XXXXOOOOOOO**::::43437777777",
"7777777<<#..##<<<<<3333,,,,44:**7777777",
"777777--<<##<<333,,,,444:::****11777777",
"7777772;%--2555====$$$66611111161777777",
"77777-2;;>&-&>>;%@@;-%=$5==+=$116177777",
"777772;2>&;@&>>%2@@;-%=$55=$6=$16177777",
"777772;2>&-&>>>%%@@;-%56555=+=$16:77777",
"77774,<#3&-&>>@%@@;-%256555=+::::*77777",
"777743<<##.#<<<<33333,,,,,4444****17777",
"77774<<<<<#3333,,,,444444::::*****17777",
"77772=4,3<<3333,,,,444444:::::***617777",
"77772;2>;;6-%251===$$$$ 61111+661617777",
"77772;2>&&;&>>>%@;--%256555=$+661617777",
"77772;2>&&;&>>>%@;--%256555=$+661617777",
"77772;2>&&;&>>>2@;--%256555=$+661617777",
"77772;2>&&;&>>>2@;--%256555=$+661617777",
"77772;2>&&;&>>>2@;--%256555=$+661617777",
"77772;2>&&;&>>>2@;--%256555=$+661617777",
"7777<;2>&&-&>>>5@;--%256555=$+661::7777",
"77773###<&-&>>>5@;--%256555=$+::::*7777",
"7777,<<<#.#<<<<<33333,,,,,4444:***77777",
"77774,3<<#<3333,,,,444444:::::****o7777",
"77777=4,,,33333,,,,444444:::::ooo+67777",
"7777722555555$$o$$66666 6666oo616167777",
"777772;2@&-&@@-=-%%%%25655=$16616177777",
"7777772;;>2@@@-=2%%%%2$655=$16616177777",
"7777773;2;;2@@-=5%%%256655=616161777777",
"7777773#.#;2---5=222256$5=$16111*777777",
"7777777<<<####<<<33,,,444:::**OX7777777"
};
